<?xml version="1.0" standalone="no"?>
<!DOCTYPE svg PUBLIC "-//W3C//DTD SVG 20010904//EN"
 "http://www.w3.org/TR/2001/REC-SVG-20010904/DTD/svg10.dtd">
<svg version="1.0" xmlns="http://www.w3.org/2000/svg"
 width="1026.000000pt" height="304.000000pt" viewBox="0 0 1026.000000 304.000000"
 preserveAspectRatio="xMidYMid meet">

<g transform="translate(0.000000,304.000000) scale(0.100000,-0.100000)"
fill="#000000" stroke="none">
<path d="M3320 1530 l0 -1510 -357 -1 c-197 -1 -369 -5 -383 -9 -14 -4 1709
-8 3828 -9 l3852 -1 0 1520 0 1520 -3470 0 -3470 0 0 -1510z m3288 378 c14
-14 17 -844 3 -866 -10 -17 -79 -27 -125 -18 l-36 7 0 439 c0 341 3 439 13
443 25 11 133 7 145 -5z m319 -34 c22 -22 25 -32 20 -70 -6 -57 -19 -72 -71
-79 -61 -9 -112 14 -121 54 -9 43 3 88 28 106 12 8 43 15 70 15 38 0 53 -5 74
-26z m-1647 -197 l5 -179 114 167 c63 92 121 174 129 181 9 9 38 14 88 14 121
0 118 -18 -45 -230 l-119 -154 118 -176 c64 -96 124 -189 133 -207 29 -56 8
-73 -90 -73 -40 0 -57 5 -76 23 -13 12 -76 103 -138 202 l-114 180 -3 -193 -2
-193 -26 -9 c-38 -15 -107 -12 -132 6 l-22 15 0 385 c0 252 4 392 11 405 9 18
19 19 87 17 l77 -3 5 -178z m865 -28 c51 -14 100 -51 123 -92 14 -27 17 -66
20 -270 3 -175 0 -242 -8 -253 -13 -14 -84 -20 -114 -8 -9 3 -16 17 -16 30 l0
24 -37 -24 c-56 -36 -109 -49 -169 -43 -103 11 -170 71 -181 165 -16 139 98
222 304 222 l53 0 0 40 c0 31 -7 47 -26 67 -24 23 -31 25 -89 21 -37 -3 -86
-16 -119 -31 -62 -29 -81 -27 -90 6 -11 40 -6 66 17 92 44 52 230 82 332 54z
m779 -15 c14 -13 16 -54 16 -297 0 -155 -4 -288 -9 -295 -10 -17 -79 -27 -125
-18 l-36 7 0 304 c0 233 3 304 13 308 30 13 126 7 141 -9z"/>
<path d="M5990 1279 c-41 -16 -60 -40 -60 -74 0 -76 99 -91 173 -27 12 10 17
30 17 64 l0 48 -52 -1 c-29 0 -64 -5 -78 -10z"/>
<path d="M1384 2370 c-24 -52 -44 -82 -58 -86 -56 -18 -95 -55 -125 -117 -17
-34 -46 -77 -65 -94 -43 -40 -50 -61 -36 -111 11 -44 68 -102 126 -129 31 -15
34 -20 28 -48 -3 -16 -12 -37 -20 -46 -9 -9 -14 -38 -14 -74 0 -46 -5 -64 -21
-81 -19 -20 -36 -75 -111 -361 -19 -72 -25 -84 -50 -94 -60 -24 -85 -90 -53
-135 24 -35 66 -46 147 -40 95 8 140 8 211 0 47 -5 63 -2 91 14 29 17 43 19
92 12 33 -4 73 -13 89 -19 27 -11 189 -15 495 -11 161 2 251 69 299 223 9 29
33 74 54 99 100 122 113 316 36 547 -33 100 -63 135 -113 135 -74 0 -103 -62
-72 -152 30 -85 58 -276 60 -405 1 -126 1 -129 -24 -147 -33 -26 -122 -59
-175 -67 l-42 -5 -6 78 c-9 125 -58 228 -153 321 -61 60 -163 121 -227 137
-15 4 -30 13 -34 22 -3 8 8 58 25 112 41 132 45 155 37 218 -7 62 -62 153
-110 184 -17 11 -46 45 -65 77 -41 67 -109 123 -150 123 -27 0 -32 -7 -66 -80z
m683 -1152 c-3 -8 -6 -5 -6 6 -1 11 2 17 5 13 3 -3 4 -12 1 -19z"/>
<path d="M1783 896 c-37 -10 -42 -21 -13 -29 19 -5 20 -14 20 -131 0 -115 -2
-127 -20 -138 -33 -21 -23 -28 35 -28 58 0 66 5 38 26 -15 10 -19 35 -23 161
l-5 149 -32 -10z"/>
<path d="M1943 899 c-15 -15 -5 -39 17 -39 22 0 32 24 17 39 -6 6 -14 11 -17
11 -3 0 -11 -5 -17 -11z"/>
<path d="M1118 878 c21 -11 22 -16 22 -145 0 -126 -1 -135 -20 -140 -39 -10
-19 -23 34 -23 56 0 82 13 46 23 -27 7 -29 86 -2 110 28 26 38 21 82 -36 40
-54 49 -77 30 -77 -5 0 -10 -4 -10 -10 0 -11 113 -14 124 -3 3 4 -5 12 -19 17
-34 15 -147 155 -137 171 8 14 100 95 128 112 16 10 10 12 -40 12 -50 1 -57
-1 -43 -11 15 -12 10 -20 -47 -80 -34 -38 -68 -68 -74 -68 -8 0 -12 22 -12 64
0 56 3 67 22 80 21 15 19 16 -42 15 -54 0 -61 -2 -42 -11z"/>
<path d="M1533 793 c-25 -5 -66 -51 -57 -64 10 -17 29 -9 46 21 21 36 67 41
98 10 37 -37 22 -55 -54 -69 -78 -14 -106 -33 -106 -71 0 -40 29 -54 94 -45
61 8 79 8 131 0 38 -6 39 -6 15 7 -23 12 -25 20 -28 95 -2 64 -7 84 -22 98
-19 17 -78 27 -117 18z m104 -129 c9 -24 -8 -46 -51 -68 -47 -23 -86 -11 -86
28 0 18 9 28 38 39 49 21 91 21 99 1z"/>
<path d="M1930 782 c-31 -14 -33 -16 -12 -20 21 -3 22 -8 22 -84 0 -71 -2 -80
-20 -85 -39 -10 -19 -23 34 -23 56 0 82 13 46 23 -18 5 -20 14 -20 100 0 53
-3 98 -7 100 -5 2 -24 -3 -43 -11z"/>
</g>
</svg>
